<svg width="65" height="65" viewBox="0 0 65 65" fill="none" xmlns="http://www.w3.org/2000/svg">
<g id="Karma splash green">
<g id="ForegroundBushes">
<g id="BushBall-09">
<path id="Ellipse 2" d="M32.0396 1.5C32.7159 1.5 33.3874 1.52227 34.0532 1.56641L33.9546 3.06348L33.9536 3.06543C35.2424 3.15086 36.5082 3.32108 37.7456 3.57227L37.7466 3.57129L38.0444 2.10059C39.3727 2.37022 40.6702 2.72823 41.9302 3.16699L41.437 4.58301L41.436 4.58398C42.6477 5.0059 43.8223 5.50853 44.9556 6.08301L44.9575 6.08105L45.6353 4.74316C46.8365 5.35216 47.993 6.03945 49.0972 6.79785L48.2476 8.0332C49.3005 8.7564 50.3031 9.54944 51.2515 10.4033H51.2524L52.2563 9.28809C53.2525 10.185 54.1908 11.1474 55.064 12.168L53.9233 13.1426C54.7511 14.1101 55.5166 15.1339 56.2163 16.2061H56.2183L57.4741 15.3857C58.204 16.5042 58.865 17.6737 59.4497 18.8877L58.0981 19.5391H58.0962C58.6466 20.6819 59.1272 21.8659 59.5308 23.0859L60.9556 22.6152C61.3732 23.8778 61.713 25.1769 61.9692 26.5059L60.4966 26.7891H60.4946C60.7336 28.0284 60.8948 29.2953 60.9761 30.585H60.979L62.4761 30.4912C62.5179 31.1555 62.5396 31.8253 62.5396 32.5C62.5396 33.1747 62.5179 33.8445 62.4761 34.5088L60.979 34.415L60.9761 34.4141C60.8949 35.7037 60.7336 36.9707 60.4946 38.21L60.4966 38.2109L61.9692 38.4941C61.713 39.8231 61.3732 41.1222 60.9556 42.3848L59.5308 41.9131C59.1272 43.1332 58.6466 44.3171 58.0962 45.46L58.0981 45.4609L59.4497 46.1123C58.865 47.3263 58.204 48.4958 57.4741 49.6143L56.2183 48.7939L56.2163 48.793C55.5166 49.8652 54.7511 50.8889 53.9233 51.8564L55.064 52.832C54.1908 53.8526 53.2525 54.815 52.2563 55.7119L51.2524 54.5967L51.2515 54.5957C50.3031 55.4496 49.3005 56.2426 48.2476 56.9658L49.0972 58.2021C47.993 58.9605 46.8365 59.6478 45.6353 60.2568L44.9575 58.9189L44.9556 58.916C43.8223 59.4905 42.6477 59.9931 41.436 60.415L41.437 60.417L41.9302 61.833C40.6702 62.2718 39.3727 62.6298 38.0444 62.8994L37.7466 61.4287L37.7456 61.4268C36.5081 61.678 35.2425 61.8482 33.9536 61.9336L33.9546 61.9365L34.0532 63.4336C33.3874 63.4777 32.7159 63.5 32.0396 63.5C31.3632 63.5 30.6917 63.4777 30.0259 63.4336L30.1245 61.9365V61.9336C28.8357 61.8481 27.57 61.678 26.3325 61.4268V61.4287L26.0347 62.8994C24.7064 62.6298 23.4089 62.2718 22.1489 61.833L22.6421 60.417V60.415C21.4305 59.9931 20.2558 59.4906 19.1226 58.916L19.1216 58.9189L18.4438 60.2568C17.2426 59.6478 16.0861 58.9605 14.9819 58.2021L15.8306 56.9658C14.7777 56.2426 13.775 55.4496 12.8267 54.5957V54.5967L11.8228 55.7119C10.8266 54.815 9.88827 53.8526 9.01514 52.832L10.1548 51.8564C9.32706 50.8889 8.56147 49.8652 7.86182 48.793L7.86084 48.7939L6.60498 49.6143C5.87511 48.4958 5.21406 47.3263 4.62939 46.1123L5.98096 45.4609L5.98193 45.46C5.43159 44.3171 4.9509 43.1331 4.54736 41.9131L3.12354 42.3848C2.7059 41.1222 2.36612 39.8231 2.10986 38.4941L3.58252 38.2109L3.5835 38.21C3.34456 36.9707 3.18325 35.7037 3.10205 34.4141L3.1001 34.415L1.60303 34.5088C1.56119 33.8445 1.53955 33.1747 1.53955 32.5C1.53955 31.8253 1.56119 31.1555 1.60303 30.4912L3.1001 30.585H3.10205C3.18329 29.2954 3.34452 28.0283 3.5835 26.7891H3.58252L2.10986 26.5059C2.36612 25.1769 2.7059 23.8778 3.12354 22.6152L4.54736 23.0859C4.95093 21.8659 5.43157 20.6819 5.98193 19.5391H5.98096L4.62939 18.8877C5.21406 17.6737 5.87511 16.5042 6.60498 15.3857L7.86084 16.2061H7.86182C8.56148 15.1339 9.32706 14.1101 10.1548 13.1426L9.01514 12.168C9.88827 11.1474 10.8266 10.185 11.8228 9.28809L12.8267 10.4033C13.775 9.54944 14.7777 8.75641 15.8306 8.0332L14.9819 6.79785C16.0861 6.03945 17.2426 5.35216 18.4438 4.74316L19.1216 6.08105L19.1226 6.08301C20.2558 5.5085 21.4305 5.00593 22.6421 4.58398V4.58301L22.1489 3.16699C23.4089 2.72823 24.7064 2.37022 26.0347 2.10059L26.3325 3.57129V3.57227C27.57 3.32104 28.8357 3.1509 30.1245 3.06543V3.06348L30.0259 1.56641C30.6917 1.52227 31.3632 1.5 32.0396 1.5Z" fill="url(#paint0_linear_0_1)" stroke="#0A733E" stroke-width="3" stroke-linejoin="round" stroke-dasharray="4 4"/>
</g>
</g>
</g>
<defs>
<linearGradient id="paint0_linear_0_1" x1="32.0396" y1="3" x2="32.0396" y2="62" gradientUnits="userSpaceOnUse">
<stop stop-color="#147240"/>
<stop offset="1" stop-color="#167B43"/>
</linearGradient>
</defs>
</svg>
